<?xml version="1.0" encoding="UTF-8"?>
<svg width="97px" height="57px" viewBox="0 0 97 57" version="1.1" xmlns="http://www.w3.org/2000/svg" xmlns:xlink="http://www.w3.org/1999/xlink">
    <!-- Generator: Sketch 47.1 (45422) - http://www.bohemiancoding.com/sketch -->
    <title>logo_orig</title>
    <desc>Created with Sketch.</desc>
    <defs>
        <polygon id="path-1" points="0.132478082 7.25749526 5.0867863 7.25749526 5.0867863 0.0499447628 0.132478082 0.0499447628"></polygon>
        <polygon id="path-3" points="0 56.0806452 96.6731233 56.0806452 96.6731233 0.648556167 0 0.648556167"></polygon>
    </defs>
    <g id="Design" stroke="none" stroke-width="1" fill="none" fill-rule="evenodd">
        <g id="homepage_desktop_rozsirene" transform="translate(-375.000000, -30.000000)">
            <g id="logo_orig" transform="translate(375.000000, 30.000000)">
                <polygon id="Fill-1" fill="#161D41" points="32.5887789 49 30.5009901 54.165124 28.4118812 49 27 49 29.8871287 56 31.1128713 56 34 49"></polygon>
                <polygon id="Fill-2" fill="#161D41" points="41.4925117 49 39.5006315 51.9376157 37.5087514 49 36 49 38.8842476 53.2580526 38.8842476 56 40.1258571 56 40.1258571 53.2580526 43 49"></polygon>
                <g id="Group-18">
                    <g id="Group-5" transform="translate(43.184932, 48.823150)">
                        <mask id="mask-2" fill="white">
                            <use xlink:href="#path-1"></use>
                        </mask>
                        <g id="Clip-4"></g>
                        <path d="M3.7812726,4.69672104 C3.7812726,5.0859867 3.71749178,5.38486355 3.59524521,5.58081592 C3.42117671,5.85000302 3.12486164,5.98063793 2.68836164,5.98063793 C2.31697123,5.98063793 2.03261507,5.88431118 1.81536164,5.68505994 C1.63464932,5.52143641 1.52901233,5.33010245 1.49247123,5.10050169 L1.45526575,4.86826184 L0.132478082,4.86826184 L0.161046575,5.16977778 C0.21419726,5.72332674 0.442745205,6.20430074 0.84469726,6.60412275 C1.29647808,7.03759315 1.90372466,7.2579571 2.64849863,7.2579571 C3.48030685,7.2579571 4.11877945,6.98877 4.54730685,6.45699353 C4.90540959,6.00504951 5.0867863,5.42313034 5.0867863,4.72707057 L5.0867863,0.0499447628 L3.7812726,0.0499447628 L3.7812726,4.69672104 Z" id="Fill-3" fill="#161D41" mask="url(#mask-2)"></path>
                    </g>
                    <polygon id="Fill-6" fill="#161D41" points="51.7002692 56.0010766 57.1276185 56.0010766 57.1276185 54.7343138 53.0064473 54.7343138 53.0064473 53.0710279 56.6871322 53.0710279 56.6871322 51.7937087 53.0064473 51.7937087 53.0064473 50.1403193 57.1276185 50.1403193 57.1276185 48.8728967 51.7002692 48.8728967"></polygon>
                    <polygon id="Fill-8" fill="#161D41" points="59.7974438 50.1204602 63.7445466 50.1204602 59.7369849 54.9203036 59.7369849 56.0010106 65.5350603 56.0010106 65.5350603 54.754041 61.5274986 54.754041 65.5350603 49.9640941 65.5350603 48.8728308 59.7974438 48.8728308"></polygon>
                    <path d="M69.6626096,50.1301588 L71.3953219,50.1301588 C72.0085479,50.1301588 72.4922192,50.3485435 72.8742397,50.7985082 C73.2536027,51.2412154 73.4389658,51.7769505 73.4389658,52.4373825 C73.4389658,53.0978146 73.2536027,53.6342095 72.8735753,54.0769167 C72.4922192,54.5255619 72.0085479,54.7439465 71.3953219,54.7439465 L69.6626096,54.7439465 L69.6626096,50.1301588 Z M72.6709384,49.1174083 C72.2723082,48.9551044 71.8530822,48.8732926 71.4252192,48.8732926 L68.3570959,48.8732926 L68.3570959,56.0008127 L71.4252192,56.0008127 C71.8537466,56.0008127 72.2729726,55.9190009 72.6709384,55.7573567 C73.0715616,55.594393 73.4296644,55.3542359 73.7346164,55.0441429 C74.4049795,54.3645774 74.7444795,53.48774 74.7444795,52.4373825 C74.7444795,51.387025 74.4049795,50.5101877 73.7352808,49.8306222 C73.429,49.5198694 73.0715616,49.2797123 72.6709384,49.1174083 L72.6709384,49.1174083 Z" id="Fill-10" fill="#161D41"></path>
                    <mask id="mask-4" fill="white">
                        <use xlink:href="#path-3"></use>
                    </mask>
                    <g id="Clip-13"></g>
                    <polygon id="Fill-12" fill="#161D41" mask="url(#mask-4)" points="77.8245616 56.0008127 79.1307397 56.0008127 79.1307397 48.8726328 77.8245616 48.8726328"></polygon>
                    <path d="M87.3486329,52.4548005 C87.1154342,52.3037127 86.8483521,52.1776962 86.5533658,52.0807096 C86.2743247,51.9896611 85.9859822,51.9071895 85.6976397,51.8365939 L84.8611808,51.6327243 C84.6034,51.5700459 84.3708658,51.4974709 84.1695575,51.4163189 C83.9908384,51.3444038 83.8473315,51.2573138 83.7443521,51.1570284 C83.6446945,51.0607017 83.6327356,50.9881267 83.6327356,50.9419427 C83.6327356,50.8218641 83.650674,50.709043 83.6845575,50.604799 C83.7117973,50.5216677 83.7695986,50.4411755 83.8572973,50.3659614 L83.8579616,50.3653017 C83.9562904,50.2808508 84.1037836,50.2056368 84.2984479,50.1409791 C84.4990918,50.0750019 84.7555438,50.0413535 85.0604959,50.0413535 C85.3694342,50.0413535 85.6272151,50.0710432 85.8305164,50.1304227 C86.5321055,50.3257153 86.6570096,50.709043 86.6908932,50.9808692 L86.7207904,51.2230057 L88.0282973,51.2230057 L88.0136808,50.9333656 C87.9831192,50.3243958 87.7233452,49.8190102 87.2456534,49.434363 C86.7354068,49.0094696 86.0192014,48.7937241 85.1156397,48.7937241 C84.2200507,48.7937241 83.5310849,48.985058 83.068674,49.3631076 C82.5896534,49.7543525 82.3471534,50.2676554 82.3471534,50.8878413 C82.3471534,51.3397854 82.4873384,51.7072785 82.7637219,51.9817438 C83.0128658,52.2284986 83.3257904,52.4297292 83.6958521,52.578178 C84.0453178,52.7193692 84.4280027,52.8361489 84.8306192,52.9252182 C85.2126397,53.009669 85.5734,53.1013774 85.9016055,53.1983639 C86.2092151,53.2894125 86.4656671,53.4028933 86.6636534,53.5388064 C86.811811,53.6404113 86.8782493,53.7624692 86.8782493,53.9373089 C86.8782493,54.1794453 86.8782493,54.8233831 85.2956877,54.8233831 C84.7542151,54.8233831 84.3190438,54.7323345 84.0047904,54.5528764 C83.6699411,54.3595631 83.5038452,54.1015922 83.4825849,53.7420163 L83.4673041,53.4827258 L82.1199342,53.4827258 L82.1485027,53.7842417 C82.2149411,54.4941567 82.4986329,55.0529838 82.9922699,55.4442288 C83.5270986,55.8664831 84.2984479,56.0809091 85.2863863,56.0809091 C86.1607151,56.0809091 86.8623041,55.9001315 87.3712219,55.5438544 C87.9107014,55.1658049 88.1844274,54.6155548 88.1844274,53.9076191 C88.1844274,53.2933711 87.9020644,52.8031603 87.3486329,52.4548005" id="Fill-14" fill="#161D41" mask="url(#mask-4)"></path>
                    <polygon id="Fill-15" fill="#161D41" mask="url(#mask-4)" points="96.6726582 50.1404513 96.6726582 48.8730287 91.2453089 48.8730287 91.2453089 56.0012086 96.6726582 56.0012086 96.6726582 54.7344458 92.551487 54.7344458 92.551487 53.0705 96.2328363 53.0705 96.2328363 51.7938406 92.551487 51.7938406 92.551487 50.1404513"></polygon>
                    <path d="M63.9673808,0.64849019 L48.052737,0.64849019 C45.8855178,0.64849019 43.8684493,1.74635129 42.7011274,3.55940556 L37.6670932,11.3836452 L40.1791274,15.2881777 L46.2688671,5.82308431 C46.660189,5.21543402 47.3272301,4.85321903 48.052737,4.85321903 L63.9673808,4.85321903 C65.098826,4.85321903 65.6422918,5.61657558 65.8236685,5.94514218 C66.0050452,6.27370879 66.3604904,7.13998981 65.7512507,8.08676306 L50.6484836,31.559482 L53.1605178,35.4640145 L69.3189904,10.3511016 C72.0197096,6.15297046 68.9841411,0.64849019 63.9673808,0.64849019" id="Fill-16" fill="#161D41" mask="url(#mask-4)"></path>
                    <polygon id="Fill-17" fill="#1E7EFC" mask="url(#mask-4)" points="26.3394863 41.5865694 57.3263356 41.5865694 30.9868493 0.649018008 0 0.649018008"></polygon>
                </g>
            </g>
        </g>
    </g>
</svg>