<?xml version="1.0" standalone="no"?>
<!DOCTYPE svg PUBLIC "-//W3C//DTD SVG 20010904//EN"
 "http://www.w3.org/TR/2001/REC-SVG-20010904/DTD/svg10.dtd">
<svg version="1.0" xmlns="http://www.w3.org/2000/svg"
 width="270.000000pt" height="270.000000pt" viewBox="0 0 270.000000 270.000000"
 preserveAspectRatio="xMidYMid meet">
<metadata>
Created by potrace 1.11, written by Peter Selinger 2001-2013
</metadata>
<g transform="translate(0.000000,270.000000) scale(0.100000,-0.100000)"
fill="#000000" stroke="none">
<path d="M27 2098 c47 -75 454 -710 509 -795 30 -46 54 -87 54 -92 0 -5 4 -11
8 -13 4 -1 40 -55 80 -118 162 -255 322 -504 330 -512 4 -4 274 -7 600 -6
l591 3 -74 115 c-41 63 -74 120 -72 126 1 6 103 169 227 363 124 193 265 413
313 489 95 149 112 192 104 264 -12 96 -86 185 -172 207 -28 7 -169 11 -387
11 -451 -1 -420 12 -584 -246 -54 -85 -101 -154 -104 -154 -3 0 -62 89 -131
198 l-126 197 -596 3 -597 2 27 -42z m2482 -143 c39 -40 35 -69 -27 -168 -31
-51 -61 -97 -67 -104 -5 -6 -53 -79 -105 -162 -52 -83 -132 -208 -177 -278
-45 -71 -103 -163 -130 -205 -26 -43 -50 -78 -53 -78 -3 0 -84 124 -180 276
-96 151 -179 281 -185 288 -39 47 -38 54 12 134 121 195 196 304 215 311 12 4
169 7 349 7 315 -1 329 -2 348 -21z"/>
</g>
</svg>
