<?xml version="1.0" encoding="UTF-8"?>
<svg width="37px" height="10px" viewBox="0 0 37 10" version="1.1" xmlns="http://www.w3.org/2000/svg" xmlns:xlink="http://www.w3.org/1999/xlink">
    <!-- Generator: Sketch 47.1 (45422) - http://www.bohemiancoding.com/sketch -->
    <title>arrow - icon</title>
    <desc>Created with Sketch.</desc>
    <defs></defs>
    <g id="Design" stroke="none" stroke-width="1" fill="none" fill-rule="evenodd">
        <g id="homepage_desktop" transform="translate(-1427.000000, -440.000000)" fill-rule="nonzero" fill="#FFFFFF">
            <g id="Vyhledat_button" transform="translate(1345.000000, 410.000000)">
                <g id="arrow---icon" transform="translate(82.000000, 30.000000)">
                    <path d="M1,6 L33,6 C33.5522847,6 34,5.55228475 34,5 C34,4.44771525 33.5522847,4 33,4 L1,4 C0.44771525,4 0,4.44771525 0,5 C0,5.55228475 0.44771525,6 1,6 Z" id="Line-2"></path>
                    <path d="M36.2191075,8.60494591 C36.5641145,9.05885699 37.1934022,9.13245052 37.624661,8.76932165 C38.0559197,8.40619279 38.1258406,7.74385104 37.7808336,7.28993996 L33,1 L28.2191664,7.28993996 C27.8741594,7.74385104 27.9440803,8.40619279 28.375339,8.76932165 C28.8065978,9.13245052 29.4358855,9.05885699 29.7808925,8.60494591 L33,4.36970275 L36.2191075,8.60494591 Z" id="Triangle-2" transform="translate(33.000000, 5.000000) rotate(-270.000000) translate(-33.000000, -5.000000) "></path>
                </g>
            </g>
        </g>
    </g>
</svg>